<?xml version="1.0" encoding="utf-8"?>
<!-- Generator: Adobe Illustrator 21.1.0, SVG Export Plug-In . SVG Version: 6.00 Build 0)  -->
<svg version="1.1" id="Layer_1" xmlns="http://www.w3.org/2000/svg" xmlns:xlink="http://www.w3.org/1999/xlink" x="0px" y="0px"
	 viewBox="0 0 88 24" style="enable-background:new 0 0 88 24;" xml:space="preserve">
<style type="text/css">
	.st0{fill:#FF694B;}
	.st1{fill:#FF6644;}
</style>
<g id="brand">
	<g id="brand-logo">
		<path class="st0" d="M17.4,9.6c-0.7-1.2-1.6-2.2-2.8-2.9l1.6,0.8c1.3,0.6,2.5,1.6,3.4,2.8l3-5.4c0.5-0.8,0.5-1.9-0.1-2.7
			c-0.7-1.1-2.1-1.4-3.3-0.8l-5.4,2.9c-1.2,0.7-2.6,0.7-3.8,0L4.8,1.4C4,0.9,2.9,0.9,2.1,1.4C1,2.1,0.7,3.6,1.3,4.7l2.9,5.4
			c0.7,1.2,0.7,2.6,0,3.8l-2.9,5.3c-0.5,0.9-0.5,1.9,0.1,2.7c0.7,1,2.1,1.4,3.3,0.8l5.6-3c-1.2-0.9-2.1-2.1-2.8-3.4l-0.8-1.6
			c0.7,1.2,1.7,2.1,2.9,2.8l9.7,5.3c1.1,0.6,2.5,0.3,3.2-0.8c0.5-0.8,0.6-1.9,0.1-2.8L17.4,9.6z M20.5,2.5c0.6,0,1,0.4,1,1
			s-0.4,1-1,1s-1-0.4-1-1S19.9,2.5,20.5,2.5z M3.5,4.5c-0.6,0-1-0.4-1-1s0.4-1,1-1s1,0.4,1,1S4.1,4.5,3.5,4.5z M3.5,21.5
			c-0.6,0-1-0.4-1-1s0.4-1,1-1s1,0.4,1,1S4.1,21.5,3.5,21.5z M13,11c-1.1,0-2,0.9-2,2c0,0.6,0.2,1.1,0.6,1.5
			c-1.4-0.2-2.3-1.5-2.1-2.8s1.5-2.3,2.8-2.1c1.1,0.2,2,1,2.1,2.1C14.1,11.2,13.6,11,13,11z M20.5,21.5c-0.6,0-1-0.4-1-1s0.4-1,1-1
			s1,0.4,1,1S21.1,21.5,20.5,21.5z"/>
	</g>
	<g id="brand-dbt">
		<path d="M44.8,2.7h3.5v17.2h-3l-0.5-1.8h-0.2c-0.1,0.1-0.2,0.3-0.4,0.4s-0.3,0.3-0.4,0.5s-0.3,0.3-0.4,0.4
			c-0.1,0.1-0.2,0.2-0.3,0.2c-0.3,0.1-0.6,0.3-1,0.3c-0.5,0.1-1,0.1-1.5,0.1c-1.1,0.1-2.2-0.3-3.1-1c-0.5-0.5-0.8-1.1-1-1.8
			c-0.3-1-0.4-2-0.4-3.1c0-1.1,0.1-2.3,0.5-3.3c0.3-0.8,0.7-1.5,1.4-2.1c1.1-0.8,2.4-1.3,3.8-1.2c0.6,0,1.1,0,1.7,0.1
			C44.1,7.9,44.5,8,44.8,8L44.8,2.7z M39.8,14c0,1.5,0.2,2.5,0.7,3c0.2,0.2,0.5,0.4,0.8,0.5c0.4,0.1,0.8,0.1,1.2,0.1
			c0.4,0,0.8,0,1.3-0.1c0.4-0.1,0.7-0.2,1-0.3v-6.7c-0.2,0-0.6-0.1-0.9-0.1s-0.8,0-1.1,0c-0.4,0-0.8,0-1.2,0.1
			c-0.3,0.1-0.6,0.2-0.9,0.4c-0.3,0.3-0.5,0.7-0.7,1.1C39.8,12.6,39.8,13.3,39.8,14z"/>
		<path d="M63.7,13.4c0,1.2-0.1,2.4-0.5,3.5c-0.3,0.8-0.8,1.6-1.4,2.1c-0.5,0.4-1.1,0.7-1.7,0.8c-0.8,0.2-1.6,0.3-2.5,0.3
			c-0.8,0-1.6-0.1-2.4-0.2c-0.6-0.1-1.2-0.3-1.9-0.4L52.4,20h-0.6V2.7h3.5v7.1h0.2c0.1-0.1,0.2-0.3,0.4-0.4s0.3-0.3,0.4-0.5
			s0.3-0.3,0.4-0.4c0.1-0.1,0.2-0.2,0.3-0.3c0.3-0.2,0.6-0.3,0.9-0.3c0.5-0.1,1.1-0.2,1.6-0.2c1-0.1,2.1,0.2,2.9,0.9
			c0.5,0.5,0.8,1.1,1,1.8C63.6,11.4,63.7,12.4,63.7,13.4z M60.2,13.9c0-1.5-0.2-2.5-0.7-3c-0.5-0.4-1.1-0.6-1.8-0.5
			c-0.5,0-1,0-1.5,0.1c-0.3,0.1-0.7,0.1-1,0.2v6.7c0.3,0.1,0.6,0.1,0.9,0.1c0.4,0,0.8,0,1.2,0c0.4,0,0.8,0,1.2-0.1
			c0.3-0.1,0.6-0.2,0.9-0.4c0.3-0.3,0.5-0.7,0.7-1.1C60.1,15.3,60.2,14.6,60.2,13.9L60.2,13.9z"/>
		<path d="M73.8,10.5h-3.3v5.3c0,0.3,0,0.6,0.1,0.8c0,0.2,0.1,0.4,0.3,0.5c0.1,0.1,0.3,0.2,0.5,0.3c0.3,0,0.5,0.1,0.8,0.1
			c0.4,0,0.7,0,1.1,0s0.7-0.1,0.9-0.1l-0.3,2.4c-0.4,0.1-0.8,0.2-1.4,0.3c-0.6,0.1-1.2,0.1-1.9,0.1c-0.6,0-1.1-0.1-1.7-0.2
			c-0.4-0.1-0.8-0.3-1.1-0.7c-0.3-0.3-0.5-0.7-0.6-1.1C67,17.7,67,17.1,67,16.6v-6h-1.7L65.5,8H67V6l3.4-0.6V8h3.8L73.8,10.5z"/>
		<rect x="76" y="23" class="st1" width="7" height="1"/>
	</g>
</g>
</svg>
