<svg xmlns="http://www.w3.org/2000/svg" viewBox="0 0 24 24">
	<g id="brand">
		<g id="brand-logo"><path d="M17.4,9.594A7.473,7.473,0,0,0,14.61,6.732l1.624.769a9.434,9.434,0,0,1,3.43,2.752L22.63,4.815A2.618,2.618,0,0,0,22.574,2.1a2.5,2.5,0,0,0-3.271-.8L13.915,4.244a4,4,0,0,1-3.83,0L4.814,1.369A2.618,2.618,0,0,0,2.1,1.427a2.5,2.5,0,0,0-.8,3.27l2.939,5.387a4,4,0,0,1,0,3.831L1.371,19.182a2.623,2.623,0,0,0,.078,2.749A2.5,2.5,0,0,0,4.7,22.7l5.556-3.031A9.434,9.434,0,0,1,7.5,16.234L6.732,14.61A7.473,7.473,0,0,0,9.594,17.4L19.3,22.7a2.5,2.5,0,0,0,3.249-.767,2.632,2.632,0,0,0,.073-2.753ZM20.5,2.5a1,1,0,1,1-1,1A1,1,0,0,1,20.5,2.5Zm-17,2a1,1,0,1,1,1-1A1,1,0,0,1,3.5,4.5Zm0,17a1,1,0,1,1,1-1A1,1,0,0,1,3.5,21.5ZM13,11a1.994,1.994,0,0,0-1.353,3.464,2.494,2.494,0,1,1,2.817-2.817A1.983,1.983,0,0,0,13,11Zm7.5,10.5a1,1,0,1,1,1-1A1,1,0,0,1,20.5,21.5Z" fill="#ff694b"/></g>
	</g>
</svg>
