<svg xmlns="http://www.w3.org/2000/svg" viewBox="0 0 88 24">
	<g id="brand">
		<g id="brand-logo"><path d="M17.4,9.594A7.473,7.473,0,0,0,14.61,6.732l1.624.769a9.434,9.434,0,0,1,3.43,2.752L22.63,4.815A2.618,2.618,0,0,0,22.574,2.1a2.5,2.5,0,0,0-3.271-.8L13.915,4.244a4,4,0,0,1-3.83,0L4.814,1.369A2.618,2.618,0,0,0,2.1,1.427a2.5,2.5,0,0,0-.8,3.27l2.939,5.387a4,4,0,0,1,0,3.831L1.371,19.182a2.623,2.623,0,0,0,.078,2.749A2.5,2.5,0,0,0,4.7,22.7l5.556-3.031A9.434,9.434,0,0,1,7.5,16.234L6.732,14.61A7.473,7.473,0,0,0,9.594,17.4L19.3,22.7a2.5,2.5,0,0,0,3.249-.767,2.632,2.632,0,0,0,.073-2.753ZM20.5,2.5a1,1,0,1,1-1,1A1,1,0,0,1,20.5,2.5Zm-17,2a1,1,0,1,1,1-1A1,1,0,0,1,3.5,4.5Zm0,17a1,1,0,1,1,1-1A1,1,0,0,1,3.5,21.5ZM13,11a1.994,1.994,0,0,0-1.353,3.464,2.494,2.494,0,1,1,2.817-2.817A1.983,1.983,0,0,0,13,11Zm7.5,10.5a1,1,0,1,1,1-1A1,1,0,0,1,20.5,21.5Z" fill="#ff694b"/></g>
		<g id="brand-dbt"><path d="M44.763,3.214h3.466v17.18H45.255l-.492-1.754h-.171c-.114.142-.243.292-.385.449s-.282.31-.417.46-.265.285-.386.406a2.907,2.907,0,0,1-.267.247,3.578,3.578,0,0,1-.963.31,7.189,7.189,0,0,1-1.476.139,4.329,4.329,0,0,1-3.081-1.006,4.152,4.152,0,0,1-1-1.776,10.448,10.448,0,0,1-.364-3.059,9.756,9.756,0,0,1,.5-3.327,4.893,4.893,0,0,1,1.358-2.107A5.527,5.527,0,0,1,41.9,8.2a10.648,10.648,0,0,1,1.658.118q.738.117,1.209.224ZM39.778,14.489q0,2.268.706,2.974a1.684,1.684,0,0,0,.824.46,4.53,4.53,0,0,0,1.166.139,6.254,6.254,0,0,0,1.262-.128,5.584,5.584,0,0,0,1.027-.3V10.916c-.243-.028-.553-.057-.931-.085s-.752-.043-1.123-.043a5.444,5.444,0,0,0-1.2.117,1.932,1.932,0,0,0-.856.418A2.417,2.417,0,0,0,40,12.467,7.348,7.348,0,0,0,39.778,14.489Z"/><path d="M63.7,13.368a9.846,9.846,0,0,1-.546,3.541,4.981,4.981,0,0,1-1.443,2.128,4.722,4.722,0,0,1-1.669.845,8.967,8.967,0,0,1-2.482.289,13.567,13.567,0,0,1-2.407-.2A14.543,14.543,0,0,1,53.3,19.53l-.941.47h-.62V2.8H55.2v7h.172c.113-.128.246-.275.4-.439s.3-.321.438-.47.278-.289.406-.418a1.886,1.886,0,0,1,.3-.257,2.627,2.627,0,0,1,.941-.331A7.689,7.689,0,0,1,59.5,7.72a4.066,4.066,0,0,1,2.867.9,3.825,3.825,0,0,1,.995,1.786A11.114,11.114,0,0,1,63.7,13.368Zm-3.508.514q0-2.29-.706-2.975a2.508,2.508,0,0,0-1.755-.492,9.091,9.091,0,0,0-1.508.118,7.665,7.665,0,0,0-1.017.224v6.654a6.733,6.733,0,0,0,.856.107q.556.044,1.177.043a5.528,5.528,0,0,0,1.209-.118,1.922,1.922,0,0,0,.867-.417,2.276,2.276,0,0,0,.652-1.112A7.328,7.328,0,0,0,60.189,13.882Z"/><path d="M73.753,10.522H70.415v5.327a3.474,3.474,0,0,0,.086.846,1.11,1.11,0,0,0,.278.524.969.969,0,0,0,.513.256,4.1,4.1,0,0,0,.792.065c.356,0,.731-.014,1.123-.044s.7-.055.91-.085l-.258,2.354c-.371.1-.837.2-1.4.289a11.655,11.655,0,0,1-1.872.138,5.759,5.759,0,0,1-1.69-.213,2.6,2.6,0,0,1-1.112-.653,2.559,2.559,0,0,1-.621-1.123,6.161,6.161,0,0,1-.192-1.647V10.522H65.28L65.451,8h1.52V6.029l3.444-.642V8h3.83Z"/><rect x="76" y="23" width="7" height="1" fill="#f64"/></g>
	</g>
</svg>
