<svg width="403" height="90" viewBox="0 0 403 90" fill="none" xmlns="http://www.w3.org/2000/svg">
<path d="M350.05 34.27C345.61 34.27 341.17 36.68 337.53 39.82L337.75 32.68V16.2L331.01 20.2V75.1999H337.01V71C340.54 74.1899 344.89 76.0999 348.6 76.0999C357.71 76.0999 365.86 68.1699 365.86 54.5499C365.88 42.27 360.35 34.27 350.05 34.27ZM358.51 59.27C358.356 61.3826 357.799 63.4462 356.87 65.3499C356.52 66.017 356.108 66.6498 355.64 67.2399C355.034 67.9645 354.315 68.5859 353.51 69.08C351.877 70.0111 350.019 70.4747 348.14 70.4199H347.78C346.025 70.4267 344.3 69.9678 342.78 69.0899C341.975 68.5959 341.256 67.9745 340.65 67.25C340.182 66.6598 339.77 66.027 339.42 65.36C338.458 63.3858 337.894 61.2418 337.76 59.0499C337.63 57.7599 337.58 56.4399 337.58 55.1899C337.58 53.9399 337.63 52.62 337.76 51.33C337.889 49.132 338.449 46.981 339.41 45C339.677 44.5041 339.97 44.0234 340.29 43.56L340.62 43.13C341.226 42.4054 341.945 41.784 342.75 41.29C344.394 40.3727 346.259 39.9263 348.14 40H348.28C348.71 40 349.14 40 349.58 40.08L350.16 40.16C350.389 40.1888 350.616 40.2322 350.84 40.29L351.18 40.3699L351.42 40.43L351.83 40.56C352.417 40.7581 352.98 41.0196 353.51 41.34C354.315 41.834 355.034 42.4554 355.64 43.18C356.105 43.7479 356.516 44.3571 356.87 45C358.31 47.59 358.71 51.6299 358.71 55.1699C358.713 56.5391 358.646 57.9076 358.51 59.27Z" fill="white"/>
<path d="M262.88 16.2V21.34H256.03V20.36L262.88 16.2Z" fill="white"/>
<path d="M337.75 16.2V21.34L331.01 21.15V20.17L337.75 16.2Z" fill="white"/>
<path d="M256 21.3H262.85V69.3001H286.34V75.1H256V21.3Z" fill="white"/>
<path d="M290 64.77C290 56.09 297.49 51.77 314.48 49.9C314.48 44.77 312.76 39.83 306.25 39.83C301.64 39.83 297.49 42.01 294.36 44.1L291.72 39.48C295.39 37.07 300.98 34.27 307.38 34.27C317.11 34.27 321.22 40.74 321.22 50.66V75.12H315V70.35C311.2 73.51 306.54 76.1 301.6 76.1C295 76.1 290 72 290 64.77ZM314.48 62.24C314.482 61.2283 314.253 60.2295 313.81 59.32C313.367 58.4106 312.722 57.6145 311.924 56.993C311.125 56.3714 310.195 55.9407 309.205 55.7339C308.215 55.5272 307.19 55.5498 306.21 55.8C299.21 57.63 296.6 60.44 296.6 64.29C296.6 68.82 299.68 70.67 303.6 70.67C306.54 70.67 309.09 69.57 311.85 67.54C312.673 66.9244 313.34 66.124 313.796 65.2034C314.253 64.2828 314.487 63.2677 314.48 62.24Z" fill="white"/>
<path d="M369 70.57L372.33 66.13C375.79 68.91 379.33 70.85 384.1 70.85C389.33 70.85 391.93 68.06 391.93 64.66C391.93 60.56 387.22 58.74 382.81 57.1C377.23 55.1 370.92 52.31 370.92 45.59C370.92 39.21 376.03 34.27 384.67 34.27C389.187 34.3398 393.551 35.9166 397.07 38.75L393.84 43.07C391.09 41.07 388.28 39.53 384.75 39.53C379.75 39.53 377.41 42.2 377.41 45.24C377.41 49.03 381.74 50.48 386.26 52.16C392.01 54.33 398.41 56.66 398.41 64.25C398.41 70.72 393.28 76.1 383.87 76.1C378.429 76.0004 373.184 74.0499 369 70.57Z" fill="white"/>
<path d="M154.15 13.9199V75.3699H141.7V69.0999C140.41 71.2981 138.514 73.0789 136.24 74.2299C133.753 75.4616 131.015 76.1016 128.24 76.0999C124.792 76.1849 121.403 75.1883 118.55 73.2499C115.644 71.3173 113.334 68.6127 111.88 65.4399C110.251 61.8077 109.445 57.8601 109.52 53.8799C109.436 49.9247 110.242 46.0012 111.88 42.3999C113.335 39.2945 115.614 36.6482 118.47 34.7499C121.389 32.9073 124.79 31.9744 128.24 32.0699C130.932 32.0391 133.593 32.6529 136 33.8599C138.25 34.9823 140.138 36.715 141.45 38.8599V18.0699L154.15 13.9199ZM139.15 63.2399C140.78 61.1199 141.68 58.0299 141.68 54.0399C141.68 50.0499 140.86 47.0399 139.15 44.9299C138.249 43.9126 137.145 43.0966 135.907 42.5349C134.67 41.9732 133.329 41.6785 131.97 41.67C130.611 41.6615 129.266 41.9394 128.022 42.4856C126.778 43.0318 125.663 43.834 124.75 44.8399C123.04 46.9599 122.14 49.9699 122.14 53.8399C122.14 57.7099 123.04 60.9199 124.75 63.1199C125.611 64.2087 126.716 65.0807 127.975 65.6659C129.234 66.2511 130.612 66.5333 132 66.4899C133.367 66.5565 134.731 66.2964 135.978 65.7312C137.225 65.1661 138.319 64.3121 139.17 63.2399H139.15Z" fill="white"/>
<path d="M225 42.48V58.92C224.88 59.8214 224.966 60.7383 225.252 61.6015C225.538 62.4647 226.016 63.2517 226.651 63.9028C227.286 64.554 228.06 65.0523 228.916 65.3602C229.771 65.6681 230.686 65.7774 231.59 65.68C232.991 65.658 234.385 65.4666 235.74 65.11V74.88C233.427 75.6856 230.988 76.0651 228.54 76C223.333 76 219.333 74.5333 216.54 71.6C213.747 68.6667 212.363 64.5167 212.39 59.15V23.11L225 19V33H235.74V42.44L225 42.48Z" fill="white"/>
<path d="M86.19 3.74C88.3187 5.76368 89.6674 8.47181 90 11.39C89.9702 12.6575 89.6266 13.8978 89 15C88.26 16.54 79.23 32.17 76.54 36.48C75.0003 39.0373 74.1846 41.965 74.18 44.95C74.1737 47.9334 74.9903 50.8607 76.54 53.41C79.19 57.7 88.22 73.41 89 75C89.6147 76.0527 89.9584 77.2416 90 78.46C89.6193 81.3242 88.3066 83.9836 86.2643 86.0277C84.2221 88.0717 81.5639 89.3868 78.7 89.77C77.4606 89.7297 76.2535 89.3642 75.2 88.71C73.74 88 57.79 79.19 53.47 76.5C53.15 76.34 52.82 76.1 52.41 75.93L31.09 63.32C31.5455 67.4143 33.3833 71.2309 36.3 74.14C36.859 74.6987 37.4572 75.2167 38.09 75.69C37.5574 75.9283 37.0398 76.1988 36.54 76.5C32.23 79.19 16.52 88.22 15 89C13.9018 89.6362 12.659 89.9805 11.39 90C8.50046 89.7092 5.81442 88.3804 3.83 86.26C1.69884 84.2398 0.343537 81.5363 0 78.62C0.0647854 77.3847 0.428539 76.1837 1.06 75.12C1.79 73.57 10.82 57.87 13.51 53.55C15.0641 51.0026 15.881 48.074 15.87 45.09C15.8797 42.103 15.0629 39.1716 13.51 36.62C10.82 32.15 1.71 16.44 1.06 14.89C0.425939 13.8275 0.061986 12.6258 0 11.39C0.314569 8.48135 1.63782 5.7747 3.74 3.74C5.7747 1.63782 8.48135 0.314569 11.39 0C12.6588 0.0712787 13.8941 0.433998 15 1.06C16.3 1.63 27.77 8.3 33.88 11.88L35.26 12.7C35.6533 12.9649 36.0606 13.2086 36.48 13.43L37.13 13.84L58.84 26.7C58.5909 24.275 57.8495 21.9262 56.6614 19.7976C55.4733 17.6689 53.8633 15.805 51.93 14.32C52.4603 14.0835 52.9747 13.8129 53.47 13.51C57.79 10.82 73.47 1.71 75.04 1.06C76.1278 0.417179 77.3576 0.0530581 78.62 0C81.5003 0.332523 84.1758 1.65441 86.19 3.74ZM46.19 50.79L50.83 46.15C50.9837 46.0025 51.1059 45.8255 51.1894 45.6296C51.273 45.4337 51.316 45.223 51.316 45.01C51.316 44.797 51.273 44.5863 51.1894 44.3904C51.1059 44.1945 50.9837 44.0175 50.83 43.87L46.19 39.23C46.0425 39.0763 45.8655 38.9541 45.6696 38.8706C45.4737 38.787 45.263 38.744 45.05 38.744C44.837 38.744 44.6263 38.787 44.4304 38.8706C44.2345 38.9541 44.0575 39.0763 43.91 39.23L39.27 43.87C39.1163 44.0175 38.9941 44.1945 38.9106 44.3904C38.827 44.5863 38.784 44.797 38.784 45.01C38.784 45.223 38.827 45.4337 38.9106 45.6296C38.9941 45.8255 39.1163 46.0025 39.27 46.15L43.91 50.79C44.2227 51.0556 44.6197 51.2015 45.03 51.2015C45.4403 51.2015 45.8373 51.0556 46.15 50.79H46.19Z" fill="#FF694A"/>
<path d="M205.26 42.32C203.857 39.1815 201.566 36.5221 198.67 34.67C195.734 32.8669 192.345 31.9405 188.9 32C186.15 31.9157 183.426 32.5536 181 33.85C178.734 34.9861 176.866 36.7815 175.64 39V19.05H163V75.28H175.54V68.93C176.771 71.1426 178.643 72.931 180.91 74.06C183.368 75.3691 186.126 76.0136 188.91 75.93C192.346 76.0074 195.724 75.0416 198.6 73.1601C201.508 71.2299 203.819 68.5246 205.27 65.35C206.908 61.7206 207.714 57.7711 207.63 53.7901C207.71 49.8374 206.9 45.9174 205.26 42.32ZM192.48 63.1501C191.581 64.1744 190.474 64.9952 189.232 65.5574C187.99 66.1197 186.643 66.4105 185.28 66.4105C183.917 66.4105 182.57 66.1197 181.328 65.5574C180.086 64.9952 178.979 64.1744 178.08 63.1501C176.37 61 175.56 58 175.56 54C175.56 50 176.37 47.0801 178.08 44.8801C178.982 43.8648 180.088 43.0507 181.325 42.4908C182.563 41.9309 183.904 41.6376 185.262 41.6301C186.62 41.6225 187.965 41.9009 189.208 42.447C190.452 42.9932 191.567 43.7949 192.48 44.8C194.19 46.92 195.01 49.93 195.01 53.8C195 57.8601 194.19 61 192.48 63.1501Z" fill="white"/>
<path d="M175.64 13.9099V19.0499H163.02V18.0699L175.64 13.9099Z" fill="white"/>
<path d="M402.032 74.4888L401.553 75.8354H401.375L400.897 74.4922V75.8354H400.589V74H400.972L401.464 75.3638L401.957 74H402.339V75.8354H402.032V74.4888ZM400.319 74.2769H399.817V75.8354H399.506V74.2769H399V74H400.319V74.2769Z" fill="white"/>
</svg>